Coordinates
version=1
nRows=12
nColumns=34
inDegrees=no

Units are S.I. units (second, meters, Newtons, ...)
If the header above contains a line with 'inDegrees', this indicates whether rotational values are in degrees (yes) or radians (no).

endheader
time	pelvis_tilt	pelvis_list	pelvis_rotation	pelvis_tx	pelvis_ty	pelvis_tz	hip_flexion_r	hip_adduction_r	hip_rotation_r	knee_angle_r	ankle_angle_r	subtalar_angle_r	mtp_angle_r	hip_flexion_l	hip_adduction_l	hip_rotation_l	knee_angle_l	ankle_angle_l	subtalar_angle_l	mtp_angle_l	lumbar_extension	lumbar_bending	lumbar_rotation	arm_flex_r	arm_add_r	arm_rot_r	elbow_flex_r	pro_sup_r	arm_flex_l	arm_add_l	arm_rot_l	elbow_flex_l	pro_sup_l
1.16	-0.210445	-0.00383524	-0.0722362	-0.442699	0.92957	-0.609197	0.768358	-0.177134	-0.225384	0.424473	-0.314396	0.0216209	-0.0979107	0.812303	-0.277104	-0.208096	0.429912	-0.628385	-0.0365027	-0.0952424	-0.337025	-0.0701117	0.127787	0.352332	-0.517563	-0.170984	1.94785	1.46048	-0.0289323	-0.455836	-0.0423481	1.69301	1.76786
1.17	-0.22097	-0.00110651	-0.0623939	-0.432	0.902123	-0.611447	0.839451	-0.195809	-0.195353	0.543258	-0.204849	-0.000842755	-0.097922	0.868681	-0.265297	-0.163802	0.550516	-0.427364	-0.0639895	-0.0952717	-0.321819	-0.071812	0.115656	0.367611	-0.542824	-0.168745	1.96805	1.45684	-0.0289196	-0.472348	-0.0686855	1.74268	1.78304
1.18	-0.232321	0.00115904	-0.0526605	-0.422161	0.875259	-0.613588	0.913631	-0.213836	-0.166507	0.664344	-0.105767	-0.0203667	-0.0979334	0.929698	-0.254193	-0.123579	0.669642	-0.254	-0.0866944	-0.095301	-0.309626	-0.0730069	0.104681	0.388421	-0.566915	-0.165339	1.98614	1.45406	-0.0206763	-0.48694	-0.090015	1.78871	1.7956
1.19	-0.244406	0.00295782	-0.0430677	-0.413274	0.84905	-0.61562	0.990441	-0.231121	-0.13887	0.787021	-0.0174239	-0.0369086	-0.0979447	0.995075	-0.243832	-0.0874258	0.787006	-0.108456	-0.1046	-0.0953302	-0.300543	-0.0737124	0.0948896	0.414732	-0.589778	-0.160766	2.00208	1.45214	-0.00421663	-0.499606	-0.106288	1.83109	1.80548
1.2	-0.256897	0.00427987	-0.0337277	-0.405252	0.823999	-0.617546	1.06863	-0.247374	-0.11249	0.909322	0.0597907	-0.0504771	-0.097956	1.064	-0.234343	-0.0553489	0.901792	0.00943022	-0.117704	-0.0953594	-0.294762	-0.0739815	0.0863774	0.446419	-0.611247	-0.155008	2.0158	1.45099	0.0203595	-0.510318	-0.11739	1.86974	1.81266
1.21	-0.269443	0.00515023	-0.0248596	-0.39794	0.800272	-0.619315	1.1461	-0.262073	-0.0874149	1.02815	0.125855	-0.0612746	-0.0979673	1.13493	-0.225937	-0.0273672	1.0126	0.100925	-0.126108	-0.0953887	-0.292595	-0.0738933	0.0793182	0.483201	-0.63101	-0.148006	2.02712	1.45036	0.05275	-0.519027	-0.123188	1.90457	1.8172
1.22	-0.281666	0.00558552	-0.0167513	-0.391303	0.778062	-0.620853	1.22032	-0.274586	-0.0636761	1.13996	0.181427	-0.0697398	-0.0979787	1.20576	-0.218829	-0.00344707	1.1176	0.168765	-0.130166	-0.095418	-0.29427	-0.0735411	0.0738841	0.52462	-0.648613	-0.139619	2.03581	1.44983	0.0923278	-0.525685	-0.123635	1.93548	1.81944
1.23	-0.293361	0.00558844	-0.00962948	-0.385344	0.757171	-0.622207	1.28897	-0.284338	-0.0412782	1.24169	0.227698	-0.0764654	-0.09799	1.27424	-0.213109	0.016622	1.21491	0.216845	-0.130616	-0.0954472	-0.299849	-0.0729782	0.0701078	0.570059	-0.663504	-0.129595	2.04163	1.44883	0.138059	-0.530284	-0.118889	1.96244	1.82
1.24	-0.30437	0.00511692	-0.00357561	-0.379949	0.737734	-0.623406	1.35055	-0.291033	-0.0201774	1.33146	0.265958	-0.0820446	-0.0980014	1.33846	-0.208608	0.033293	1.30301	0.249544	-0.128574	-0.0954764	-0.309061	-0.0721687	0.0677474	0.618805	-0.675123	-0.117547	2.04441	1.44676	0.188487	-0.532901	-0.1094	1.98554	1.81968
1.25	-0.31466	0.004192	0.00153289	-0.375036	0.719818	-0.624471	1.40464	-0.294757	-0.000242544	1.40885	0.297209	-0.0869292	-0.0980127	1.39717	-0.204887	0.0472013	1.3811	0.271088	-0.125357	-0.0955056	-0.321337	-0.0710011	0.0662805	0.670085	-0.683018	-0.102992	2.04417	1.44309	0.241826	-0.533722	-0.095889	2.00501	1.81927
1.26	-0.324273	0.00292463	0.00596025	-0.370574	0.703431	-0.625433	1.45188	-0.29599	0.0187646	1.4748	0.321997	-0.0913729	-0.098024	1.44988	-0.201316	0.0590016	1.44923	0.285181	-0.122201	-0.0955348	-0.335876	-0.0693979	0.0650252	0.723054	-0.686969	-0.0854961	2.04113	1.43765	0.296181	-0.533044	-0.0792107	2.02115	1.81935
1.27	-0.33334	0.00149307	0.0100155	-0.366542	0.688497	-0.626342	1.4937	-0.295495	0.0371383	1.53116	0.340521	-0.0954773	-0.0980354	1.4967	-0.197246	0.0692255	1.50813	0.294872	-0.120008	-0.0955639	-0.35178	-0.0674076	0.0633604	0.776744	-0.687106	-0.0648628	2.03583	1.43065	0.349857	-0.531224	-0.0601357	2.0342	1.82016
